# Wavefront Obj file
# 
# verts: 70 uv-s: 113
mtllib OBJ_House_Walls.mtl

g Cube.011_Cube.002
#pivot 0.000000 0.000000 0.000000

v -41.829315 9.435962 -40.319115
v -32.635086 2.924585 -40.319641
v -32.635437 2.924585 -46.449120
v -29.570704 9.435962 -46.449287
v -46.426762 2.924585 -46.448330
v -46.426762 9.435962 -46.448330
v -41.829140 2.924585 -37.254375
v -41.829140 9.435962 -37.254375
v -46.426239 2.924585 -37.254120
v -46.426239 9.435962 -37.254120
v -41.829315 3.468200 -40.319115
v -32.635086 3.771220 -40.319641
v -41.829140 3.771220 -37.254375
v -41.829155 3.771220 -37.509773
v -32.910919 3.771220 -40.319626
v -41.829155 3.468199 -37.509773
v -32.910919 3.468200 -40.319626
v -41.829315 6.872260 -40.319115
v -41.829140 6.872260 -37.254375
v -46.426762 6.872260 -46.448330
v -46.426239 6.872260 -37.254120
v -29.877155 9.059678 -46.142799
v -29.877155 9.435962 -46.142799
v -46.120281 9.435962 -46.141880
v -29.876844 9.435962 -40.626263
v -42.135799 9.435962 -40.625568
v -42.135628 9.435962 -37.560829
v -46.119789 9.435962 -37.560604
v -46.120281 9.059678 -46.141880
v -29.876844 9.059678 -40.626263
v -42.135799 9.059678 -40.625568
v -42.135628 9.059678 -37.560829
v -46.119789 9.059678 -37.560604
v -46.119961 9.059678 -40.625347
v -32.634914 6.723982 -37.254902
v -41.754131 6.723982 -37.254383
v -29.876827 9.435962 -40.319798
v -41.829327 9.435962 -40.625587
v -29.570368 9.435962 -40.626289
v -41.754311 9.435962 -40.319118
v -41.754330 9.435962 -40.625591
v -32.634914 6.818052 -37.178284
v -41.754131 6.818052 -37.177761
v -41.754311 9.569894 -40.319118
v -41.754318 9.475824 -40.395737
v -42.822102 5.051847 -37.254288
v -45.433273 5.051847 -37.254200
v -45.433273 6.403618 -37.254200
v -42.822102 6.403618 -37.254288
v -46.426502 2.924585 -41.851227
v -46.426502 6.872260 -41.851227
v -46.120037 9.435962 -41.851242
v -46.426502 9.435962 -41.851227
v -46.426697 4.116260 -45.295784
v -46.426697 5.956743 -45.295784
v -46.426601 4.116260 -42.836388
v -46.426601 5.956743 -42.836388
v -46.426376 5.956743 -40.847561
v -46.426315 5.956743 -38.190804
v -46.426315 4.116260 -38.190804
v -46.426376 4.116260 -40.847561
v -29.570353 2.924585 -40.319809
v -29.570700 2.924585 -46.449287
v -29.570353 9.435962 -40.319809
v -29.570353 6.872260 -40.319809
v -29.570700 6.872260 -46.449287
v -29.570404 4.327450 -41.243282
v -29.570646 4.327450 -45.525826
v -29.570404 5.951798 -41.243282
v -29.570646 5.951798 -45.525826
# 70 positions

vt 0.248146 0.288182
vt 0.366471 0.440596
vt 0.898933 0.288182
vt 0.360012 0.005020
vt 0.348170 0.170674
vt 0.348179 0.016852
vt 0.598284 0.049208
vt 0.499303 0.167533
vt 0.499303 0.049208
vt 0.200907 0.274815
vt 0.023420 0.175834
vt 0.200907 0.175834
vt 0.200907 0.023420
vt 0.200907 0.056107
vt 0.162571 0.105551
vt 0.379577 0.157673
vt 0.367877 0.049208
vt 0.248146 0.624571
vt 0.347127 0.802059
vt 0.347127 0.624571
vt 0.347127 0.447084
vt 0.453532 0.483248
vt 0.499541 0.447084
vt 0.229845 0.170668
vt 0.241677 0.182500
vt 0.229844 0.182500
vt 0.229817 0.655800
vt 0.016833 0.643955
vt 0.229818 0.643967
vt 0.005037 0.005000
vt 0.005000 0.655787
vt 0.182524 0.005010
vt 0.182524 0.016842
vt 0.360002 0.182507
vt 0.241650 0.643968
vt 0.229844 0.185396
vt 0.241677 0.185396
vt 0.367877 0.019528
vt 0.995000 0.005000
vt 0.995000 0.019528
vt 0.043682 0.500503
vt 0.197505 0.515030
vt 0.197505 0.500503
vt 0.207622 0.141745
vt 0.222150 0.023420
vt 0.207622 0.023420
vt 0.023420 0.494288
vt 0.037948 0.281303
vt 0.023420 0.281303
vt 0.205780 0.279461
vt 0.220308 0.279461
vt 0.220308 0.445116
vt 0.162571 0.157740
vt 0.061757 0.105551
vt 0.061757 0.157740
vt 0.023420 0.023420
vt 0.016869 0.016833
vt 0.453532 0.757561
vt 0.382474 0.757561
vt 0.248146 0.447084
vt 0.453532 0.662607
vt 0.499541 0.624571
vt 0.382474 0.662607
vt 0.499541 0.802059
vt 0.453532 0.585821
vt 0.382474 0.585821
vt 0.382474 0.483248
vt 0.506029 0.704966
vt 0.560191 0.905962
vt 0.506029 0.941616
vt 0.979329 0.599498
vt 0.967496 0.698479
vt 0.506029 0.599498
vt 0.658443 0.704966
vt 0.622905 0.905962
vt 0.622905 0.740620
vt 0.560191 0.740620
vt 0.757423 0.929784
vt 0.658443 0.941616
vt 0.241650 0.655801
vt 0.248146 0.189202
vt 0.898933 0.189202
vt 0.826449 0.027104
vt 0.367877 0.027104
vt 0.367877 0.041632
vt 0.850354 0.479771
vt 0.898933 0.440596
vt 0.248146 0.440596
vt 0.598284 0.167533
vt 0.023420 0.274815
vt 0.367877 0.157673
vt 0.379577 0.167533
vt 0.248146 0.802059
vt 0.367877 0.005000
vt 0.043682 0.515030
vt 0.222150 0.141745
vt 0.037948 0.494288
vt 0.220308 0.610771
vt 0.205780 0.492446
vt 0.205780 0.610771
vt 0.506029 0.698479
vt 0.508924 0.698479
vt 0.979329 0.698479
vt 0.757423 0.704966
vt 0.757423 0.941616
vt 0.841177 0.041632
vt 0.829345 0.027104
vt 0.841177 0.027104
vt 0.861004 0.479771
vt 0.861004 0.447084
vt 0.979329 0.447084
vt 0.506029 0.468072
vt 0.850354 0.468072
# 113 texture coordinates

vn -0.000057 0.000000 -1.000000
vn -0.000000 1.000000 -0.000000
vn 1.000000 0.000001 -0.000057
vn 0.000058 0.000001 1.000000
vn -1.000000 -0.000000 0.000066
vn 0.000056 0.000069 1.000000
vn -1.000000 0.000063 0.000031
vn -1.000000 0.000057 0.000057
vn 0.000034 -0.000100 1.000000
vn 0.000034 -0.000025 1.000000
vn -1.000000 -0.000048 0.000031
vn -1.000000 -0.000075 0.000057
vn -0.000060 -0.000002 -1.000000
# 13 normals

usemtl default
f 66/1/1 3/2/1 20/3/1
f 10/4/2 27/5/2 28/6/2
f 1/7/3 19/8/3 18/9/3
f 8/10/4 21/11/4 19/12/4
f 7/13/4 13/14/4 46/15/4
f 14/16/3 11/17/3 18/9/3
f 53/18/5 20/19/5 51/20/5
f 21/21/5 60/22/5 9/23/5
f 26/24/2 1/25/2 38/26/2
f 39/27/2 23/28/2 25/29/2
f 6/30/2 23/28/2 4/31/2
f 53/32/2 28/6/2 52/33/2
f 1/25/2 27/5/2 8/34/2
f 37/35/2 41/36/2 40/37/2
f 24/38/4 22/39/4 23/40/4
f 27/41/1 33/42/1 28/43/1
f 26/44/5 32/45/5 27/46/5
f 23/47/5 30/48/5 25/49/5
f 29/50/3 24/51/3 52/52/3
f 40/37/2 38/26/2 1/25/2
f 21/11/6 49/53/6 19/12/6
f 21/11/4 47/54/4 48/55/4
f 7/13/4 47/54/4 9/56/4
f 53/32/2 24/57/2 6/30/2
f 20/19/5 54/58/5 55/59/5
f 10/60/5 51/20/5 21/21/5
f 51/20/5 56/61/5 50/62/5
f 51/20/7 55/59/7 57/63/7
f 50/62/5 54/58/5 5/64/5
f 9/23/8 61/65/8 50/62/8
f 21/21/7 58/66/7 59/67/7
f 51/20/5 61/65/5 58/66/5
f 63/68/3 67/69/3 62/70/3
f 65/71/4 37/72/4 18/73/4
f 66/74/3 69/75/3 70/76/3
f 66/74/3 68/77/3 63/68/3
f 39/78/3 65/79/3 66/74/3
f 39/27/2 37/35/2 64/80/2
f 4/81/1 20/3/1 6/82/1
f 41/83/1 25/84/1 30/85/1
f 65/71/4 18/73/4 15/86/4
f 19/12/4 46/15/4 13/14/4
f 65/79/3 67/69/3 69/75/3
f 5/87/1 20/3/1 3/2/1
f 66/1/1 63/88/1 3/2/1
f 10/4/2 8/34/2 27/5/2
f 1/7/3 8/89/3 19/8/3
f 8/10/4 10/90/4 21/11/4
f 18/9/3 19/8/3 14/16/3
f 14/16/3 16/91/3 11/17/3
f 19/8/3 13/92/3 14/16/3
f 53/18/5 6/93/5 20/19/5
f 21/21/5 59/67/5 60/22/5
f 39/27/2 4/31/2 23/28/2
f 6/30/2 24/57/2 23/28/2
f 53/32/2 10/4/2 28/6/2
f 1/25/2 26/24/2 27/5/2
f 37/35/2 25/29/2 41/36/2
f 24/38/4 29/94/4 22/39/4
f 27/41/1 32/95/1 33/42/1
f 26/44/5 31/96/5 32/45/5
f 23/47/5 22/97/5 30/48/5
f 52/52/3 28/98/3 34/99/3
f 34/99/3 29/50/3 52/52/3
f 28/98/3 33/100/3 34/99/3
f 40/37/2 41/36/2 38/26/2
f 21/11/9 48/55/9 49/53/9
f 21/11/4 9/56/4 47/54/4
f 7/13/10 46/15/10 47/54/10
f 53/32/2 52/33/2 24/57/2
f 20/19/5 5/64/5 54/58/5
f 10/60/5 53/18/5 51/20/5
f 51/20/5 57/63/5 56/61/5
f 51/20/5 20/19/5 55/59/5
f 50/62/11 56/61/11 54/58/11
f 9/23/11 60/22/11 61/65/11
f 21/21/12 51/20/12 58/66/12
f 51/20/5 50/62/5 61/65/5
f 63/68/3 68/77/3 67/69/3
f 1/101/10 18/73/10 40/102/10
f 65/71/4 64/103/4 37/72/4
f 40/102/4 18/73/4 37/72/4
f 66/74/3 65/79/3 69/75/3
f 66/74/3 70/76/3 68/77/3
f 66/74/3 4/104/3 39/78/3
f 39/78/3 64/105/3 65/79/3
f 39/27/2 25/29/2 37/35/2
f 4/81/1 66/1/1 20/3/1
f 30/85/1 31/106/1 41/83/1
f 38/107/13 41/83/13 31/106/13
f 31/106/13 26/108/13 38/107/13
f 12/109/4 2/110/4 62/111/4
f 62/111/4 65/71/4 12/109/4
f 18/73/4 11/112/4 15/86/4
f 11/112/4 17/113/4 15/86/4
f 12/109/4 65/71/4 15/86/4
f 19/12/4 49/53/4 46/15/4
f 65/79/3 62/70/3 67/69/3

# 98 faces
