# Wavefront Obj file
# 
# verts: 16 uv-s: 16
mtllib OBJ_House_Windows.mtl

g Cube.003_Cube.006
#pivot 0.000000 0.000000 0.000000

v -42.822102 5.051847 -37.254288
v -45.433273 5.051847 -37.254200
v -45.433273 6.403618 -37.254200
v -42.822102 6.403618 -37.254288
v -46.426697 4.116260 -45.295784
v -46.426697 5.956743 -45.295784
v -46.426601 4.116260 -42.836388
v -46.426601 5.956743 -42.836388
v -46.426376 5.956743 -40.847561
v -46.426315 5.956743 -38.190804
v -46.426315 4.116260 -38.190804
v -46.426376 4.116260 -40.847561
v -29.570404 4.327450 -41.243282
v -29.570646 4.327450 -45.525826
v -29.570404 5.951798 -41.243282
v -29.570646 5.951798 -45.525826
# 16 positions

vt 0.995000 0.222047
vt 0.575738 0.005000
vt 0.995000 0.005000
vt 0.568451 0.431581
vt 0.272935 0.005000
vt 0.272935 0.431581
vt 0.568451 0.832992
vt 0.272935 0.438100
vt 0.272935 0.832992
vt 0.005000 0.692625
vt 0.265813 0.005000
vt 0.265813 0.692625
vt 0.575738 0.222047
vt 0.568451 0.005000
vt 0.568451 0.438100
vt 0.005000 0.005000
# 16 texture coordinates

vn 0.000034 -0.000000 1.000000
vn -1.000000 -0.000000 0.000031
vn 1.000000 -0.000000 -0.000057
# 3 normals

usemtl default
f 4/1/1 2/2/1 1/3/1
f 12/4/2 10/5/2 9/6/2
f 5/7/2 8/8/2 6/9/2
f 13/10/3 16/11/3 15/12/3
f 4/1/1 3/13/1 2/2/1
f 12/4/2 11/14/2 10/5/2
f 5/7/2 7/15/2 8/8/2
f 13/10/3 14/16/3 16/11/3

# 8 faces
