# Wavefront Obj file
# 
# verts: 122 uv-s: 177
mtllib OBJ_Path2.mtl

g Plane.000_Plane.001
#pivot 0.000000 0.000000 0.000000

v -37.206703 3.050000 -37.206703
v -39.769363 3.050000 -37.206703
v -39.769363 3.000000 -36.586590
v -38.136871 3.050000 -37.206703
v -39.769363 3.000000 -35.346367
v -29.765362 2.908466 -35.346367
v -37.206703 2.908466 -35.346367
v -33.486031 2.908466 -35.346367
v -27.905027 2.908466 -35.346367
v -35.346367 2.908466 -35.346367
v -31.625694 2.908466 -35.346367
v -22.969109 0.000000 -24.184357
v -25.449551 0.000000 -24.184357
v -22.969109 0.250000 -24.769123
v -25.449551 0.250000 -24.769123
v -22.969109 0.250000 -24.184357
v -25.449551 0.250000 -24.184357
v -22.969105 0.250000 -25.406910
v -25.449551 0.250000 -25.406910
v -22.969105 0.500000 -25.406910
v -25.449551 0.500000 -25.406910
v -22.969105 0.500000 -26.044693
v -25.449551 0.500000 -26.044693
v -22.969105 0.500000 -26.664806
v -25.449551 0.500000 -26.664806
v -22.969105 0.750000 -26.664806
v -25.449551 0.750000 -26.664806
v -22.969105 0.750000 -27.284918
v -25.449551 0.750000 -27.284918
v -25.449551 0.750000 -27.905031
v -22.969101 0.750000 -27.905031
v -22.969105 1.000000 -29.145252
v -25.449551 1.000000 -29.145256
v -22.969105 1.000000 -28.525141
v -25.449551 1.000000 -28.525141
v -25.449551 1.000000 -27.905031
v -22.969101 1.000000 -27.905031
v -22.969105 1.250000 -29.145252
v -25.449551 1.250000 -29.145256
v -22.969105 1.250000 -29.765362
v -25.449551 1.250000 -29.765362
v -25.449551 1.250000 -30.385475
v -22.969101 1.250000 -30.385475
v -25.449551 1.500000 -30.385475
v -22.969101 1.500000 -30.385475
v -25.449551 1.500000 -31.005587
v -22.969101 1.500000 -31.005587
v -22.969105 1.500000 -31.625694
v -25.449551 1.500000 -31.625694
v -22.969105 1.750000 -31.625694
v -25.449551 1.750000 -31.625694
v -25.449551 1.750000 -32.245808
v -22.969101 1.750000 -32.245808
v -25.449551 1.750000 -32.865917
v -22.969101 1.750000 -32.865917
v -22.969105 2.000000 -33.486031
v -25.449551 2.000000 -33.486031
v -25.449551 2.000000 -32.865917
v -22.969101 2.000000 -32.865917
v -22.969105 2.250000 -35.346367
v -22.969105 2.250000 -33.486031
v -25.449551 2.250000 -33.486031
v -26.044693 2.500000 -34.106148
v -24.184357 2.500000 -36.586601
v -22.969105 2.500000 -35.346367
v -25.449551 2.500000 -33.486031
v -26.044693 2.750000 -34.106148
v -24.184357 2.750000 -36.586601
v -26.044693 2.750000 -36.586590
v -26.044693 3.000000 -36.586590
v -26.044693 3.000000 -34.106148
v -26.714745 3.000000 -36.586590
v -26.714745 3.000000 -34.106148
v -27.334852 3.000000 -36.586590
v -27.334852 3.000000 -34.106148
v -27.905027 3.000001 -34.106152
v -29.765362 3.050000 -36.586590
v -37.206703 3.050000 -36.586590
v -33.486031 3.050000 -36.586590
v -29.765362 3.050010 -34.106152
v -37.206703 3.050010 -34.106152
v -33.486031 3.050010 -34.106152
v -27.905027 3.000000 -36.586590
v -28.835197 2.908466 -35.346367
v -35.346367 3.050000 -36.586590
v -35.346367 3.050010 -34.106152
v -36.276539 2.908466 -35.346367
v -34.416203 2.908466 -35.346367
v -31.625694 3.050000 -36.586590
v -31.625694 3.050010 -34.106152
v -32.555866 2.908466 -35.346367
v -30.695528 2.908466 -35.346367
v -38.136871 2.908466 -35.346367
v -38.136871 3.050010 -34.106152
v -30.695528 3.050010 -34.106152
v -32.555866 3.050010 -34.106152
v -32.555866 3.050000 -36.586590
v -34.416203 3.050010 -34.106152
v -36.276539 3.050010 -34.106152
v -36.276539 3.050000 -36.586590
v -28.835197 3.050010 -34.106152
v -28.835197 3.050000 -36.586590
v -34.416203 3.050000 -36.586590
v -30.695528 3.050000 -36.586590
v -38.136871 2.908466 -36.586590
v -38.953117 3.050000 -37.206703
v -38.953117 3.050010 -34.106152
v -38.953117 2.908466 -36.586590
v -38.953117 2.908466 -35.346367
v -29.765362 2.908466 -34.726257
v -37.206703 2.908466 -34.726257
v -33.486031 2.908466 -34.726257
v -35.346367 2.908466 -34.726257
v -31.625694 2.908466 -34.726257
v -27.905027 2.954234 -34.726257
v -38.136871 2.908466 -34.726257
v -30.695528 2.908466 -34.726257
v -32.555866 2.908466 -34.726257
v -34.416203 2.908466 -34.726257
v -36.276539 2.908466 -34.726257
v -28.835197 2.908466 -34.726257
v -38.953117 2.908466 -34.726257
# 122 positions

vt 0.049731 0.189852
vt 0.005000 0.122756
vt 0.049731 0.122756
vt 0.183922 0.793713
vt 0.139191 0.860809
vt 0.139191 0.793713
vt 0.183922 0.324043
vt 0.139191 0.256947
vt 0.183922 0.256947
vt 0.183922 0.458235
vt 0.139191 0.391139
vt 0.183922 0.391139
vt 0.183922 0.592426
vt 0.139191 0.525330
vt 0.183922 0.525330
vt 0.183922 0.726617
vt 0.139191 0.659522
vt 0.183922 0.659522
vt 0.183922 0.189852
vt 0.139191 0.122756
vt 0.183922 0.122756
vt 0.234797 0.383399
vt 0.280802 0.562320
vt 0.234797 0.562320
vt 0.322983 0.383399
vt 0.280802 0.383399
vt 0.520048 0.183922
vt 0.566053 0.005000
vt 0.566053 0.183922
vt 0.475317 0.005000
vt 0.475317 0.183922
vt 0.329779 0.480217
vt 0.347813 0.435486
vt 0.329779 0.435486
vt 0.510553 0.467658
vt 0.555283 0.646579
vt 0.510553 0.646580
vt 0.555283 0.467658
vt 0.600014 0.646579
vt 0.023384 0.503196
vt 0.041417 0.458466
vt 0.023384 0.458466
vt 0.416752 0.190369
vt 0.398718 0.190369
vt 0.398718 0.235099
vt 0.421698 0.194965
vt 0.421698 0.239696
vt 0.439731 0.194965
vt 0.656697 0.259308
vt 0.611967 0.438230
vt 0.611967 0.259308
vt 0.567236 0.438230
vt 0.005000 0.441614
vt 0.005000 0.486344
vt 0.023033 0.441614
vt 0.234797 0.005000
vt 0.279527 0.183922
vt 0.234797 0.183922
vt 0.324257 0.005000
vt 0.324258 0.183922
vt 0.396836 0.383399
vt 0.378803 0.383399
vt 0.378803 0.425580
vt 0.005000 0.343567
vt 0.005000 0.389572
vt 0.023033 0.343567
vt 0.234797 0.369291
vt 0.279527 0.190369
vt 0.279527 0.369291
vt 0.324257 0.190369
vt 0.374510 0.005000
vt 0.329779 0.183922
vt 0.329779 0.005000
vt 0.419240 0.183922
vt 0.374510 0.183922
vt 0.424762 0.183922
vt 0.469493 0.005000
vt 0.469493 0.183922
vt 0.462439 0.198029
vt 0.462439 0.376951
vt 0.328247 0.376951
vt 0.516361 0.346631
vt 0.426901 0.568482
vt 0.337439 0.480823
vt 0.648112 0.190369
vt 0.469189 0.324561
vt 0.469190 0.190369
vt 0.354291 0.425580
vt 0.372324 0.383399
vt 0.372324 0.425580
vt 0.329779 0.429404
vt 0.347813 0.383399
vt 0.347813 0.429404
vt 0.392240 0.235100
vt 0.374207 0.235100
vt 0.392240 0.190369
vt 0.402086 0.263904
vt 0.357355 0.263904
vt 0.357355 0.281938
vt 0.041417 0.380638
vt 0.023384 0.380638
vt 0.041417 0.335907
vt 0.367728 0.190369
vt 0.367728 0.235100
vt 0.349695 0.235100
vt 0.225908 0.023033
vt 0.225908 0.005000
vt 0.181178 0.023033
vt 0.228652 0.901937
vt 0.049731 0.946667
vt 0.049731 0.901937
vt 0.049731 0.995000
vt 0.228652 0.946667
vt 0.228652 0.995000
vt 0.352759 0.258958
vt 0.397490 0.240925
vt 0.352759 0.240925
vt 0.023033 0.196497
vt 0.023033 0.330689
vt 0.005000 0.330689
vt 0.234797 0.568768
vt 0.234797 0.586801
vt 0.360046 0.568768
vt 0.337439 0.324561
vt 0.355473 0.324561
vt 0.337439 0.190369
vt 0.014192 0.386463
vt 0.014192 0.434795
vt 0.032225 0.434795
vt 0.183922 0.063878
vt 0.139191 0.063878
vt 0.139191 0.592426
vt 0.139191 0.458235
vt 0.049731 0.458235
vt 0.049731 0.525330
vt 0.139191 0.324043
vt 0.139191 0.189852
vt 0.049731 0.256947
vt 0.139191 0.726617
vt 0.049731 0.726617
vt 0.049731 0.793713
vt 0.049731 0.324043
vt 0.049731 0.391139
vt 0.049731 0.592426
vt 0.049731 0.659522
vt 0.005000 0.063878
vt 0.049731 0.063878
vt 0.049731 0.005000
vt 0.005000 0.005000
vt 0.139191 0.005000
vt 0.228652 0.063878
vt 0.228652 0.793713
vt 0.228652 0.726617
vt 0.228652 0.256947
vt 0.228652 0.189852
vt 0.228652 0.391139
vt 0.228652 0.324043
vt 0.228652 0.525330
vt 0.228652 0.458235
vt 0.228652 0.659522
vt 0.228652 0.592426
vt 0.228652 0.122756
vt 0.183922 0.860809
vt 0.005000 0.189852
vt 0.322983 0.562320
vt 0.520048 0.005000
vt 0.600014 0.467658
vt 0.656697 0.438230
vt 0.567236 0.259308
vt 0.279527 0.005000
vt 0.234797 0.190369
vt 0.324257 0.369291
vt 0.419240 0.005000
vt 0.424762 0.005000
vt 0.561092 0.389561
vt 0.228652 0.860809
vt 0.049731 0.860809
# 177 texture coordinates

vn -0.146739 0.964376 0.220108
vn -0.000000 1.000000 -0.000000
vn -1.000000 -0.000000 -0.000000
vn 1.000000 -0.000000 -0.000001
vn -0.158507 0.987358 -0.000000
vn 0.714264 -0.000000 -0.699876
vn -0.000005 -0.000000 -1.000000
vn -0.000000 0.993551 0.113384
vn -0.000000 0.974929 0.222517
vn 0.111442 0.993771 -0.000000
vn -0.000000 0.996765 0.080370
vn 0.268191 0.939209 -0.214382
vn -0.000000 0.974925 -0.222534
vn -0.047915 0.973805 -0.222278
vn -0.049011 0.996089 -0.073517
vn 0.000003 0.997287 -0.073605
vn -0.000000 0.997288 0.073604
vn 0.053531 0.995858 0.073499
vn -0.149480 0.982388 0.112110
vn 0.108681 0.969154 0.221198
vn 0.053541 0.995857 -0.073499
# 21 normals

usemtl default
f 78/1/1 4/2/1 105/3/1
f 121/4/2 9/5/2 84/6/2
f 113/7/2 87/8/2 120/9/2
f 112/10/2 88/11/2 119/12/2
f 114/13/2 91/14/2 118/15/2
f 110/16/2 92/17/2 117/18/2
f 111/19/2 93/20/2 116/21/2
f 19/22/2 14/23/2 18/24/2
f 17/25/2 14/23/2 15/26/2
f 22/27/2 21/28/2 20/29/2
f 25/30/2 22/27/2 24/31/2
f 52/32/3 49/33/3 51/34/3
f 30/35/2 28/36/2 31/37/2
f 29/38/2 26/39/2 28/36/2
f 46/40/3 42/41/3 44/42/3
f 33/43/3 39/44/3 41/45/3
f 36/46/3 35/47/3 30/48/3
f 36/49/2 34/50/2 35/51/2
f 32/52/2 35/51/2 34/50/2
f 27/53/3 29/54/3 25/55/3
f 42/56/2 40/57/2 43/58/2
f 40/57/2 39/59/2 38/60/2
f 13/61/3 17/62/3 15/63/3
f 21/64/3 23/65/3 19/66/3
f 48/67/2 46/68/2 47/69/2
f 44/70/2 47/69/2 46/68/2
f 52/71/2 55/72/2 54/73/2
f 52/71/2 50/74/2 53/75/2
f 56/76/2 58/77/2 59/78/2
f 62/79/2 61/80/2 60/81/2
f 63/82/2 65/83/2 64/84/2
f 67/85/2 68/86/2 69/87/2
f 12/88/4 14/89/4 16/90/4
f 18/91/4 22/92/4 20/93/4
f 26/94/4 24/95/4 28/96/4
f 34/97/4 37/98/4 31/99/4
f 38/100/4 32/101/4 40/102/4
f 47/103/4 45/104/4 43/105/4
f 50/106/4 48/107/4 53/108/4
f 75/109/2 72/110/2 74/111/2
f 70/112/2 73/113/2 71/114/2
f 74/111/5 9/5/5 75/109/5
f 55/115/4 56/116/4 59/117/4
f 60/118/4 61/119/4 56/120/4
f 65/121/6 60/122/6 64/123/6
f 68/124/7 64/125/7 69/126/7
f 72/127/7 70/128/7 69/129/7
f 122/130/2 93/20/2 109/131/2
f 117/18/2 11/132/2 114/13/2
f 118/15/2 8/133/2 112/10/2
f 91/14/8 79/134/8 8/133/8
f 11/132/8 97/135/8 91/14/8
f 119/12/2 10/136/2 113/7/2
f 120/9/2 7/137/2 111/19/2
f 87/8/8 78/1/8 7/137/8
f 10/136/8 100/138/8 87/8/8
f 121/4/2 6/139/2 110/16/2
f 84/6/8 77/140/8 6/139/8
f 9/5/8 102/141/8 84/6/8
f 88/11/8 85/142/8 10/136/8
f 8/133/8 103/143/8 88/11/8
f 92/17/8 89/144/8 11/132/8
f 6/139/8 104/145/8 92/17/8
f 105/3/9 106/146/9 108/147/9
f 109/131/2 105/3/2 108/147/2
f 7/137/2 105/3/2 93/20/2
f 3/148/10 109/131/10 108/147/10
f 3/148/11 106/146/11 2/149/11
f 5/150/10 109/131/10 3/148/10
f 5/150/12 107/151/12 122/130/12
f 101/152/13 110/16/13 80/153/13
f 99/154/13 111/19/13 81/155/13
f 98/156/13 113/7/13 86/157/13
f 96/158/13 112/10/13 82/159/13
f 95/160/13 114/13/13 90/161/13
f 94/162/13 122/130/13 107/151/13
f 81/155/13 116/21/13 94/162/13
f 80/153/13 117/18/13 95/160/13
f 90/161/13 118/15/13 96/158/13
f 82/159/13 119/12/13 98/156/13
f 86/157/13 120/9/13 99/154/13
f 101/152/14 115/163/14 121/4/14
f 78/1/2 1/164/2 4/2/2
f 121/4/15 115/163/15 9/5/15
f 113/7/2 10/136/2 87/8/2
f 112/10/2 8/133/2 88/11/2
f 114/13/2 11/132/2 91/14/2
f 110/16/2 6/139/2 92/17/2
f 111/19/2 7/137/2 93/20/2
f 19/22/2 15/26/2 14/23/2
f 17/25/2 16/165/2 14/23/2
f 22/27/2 23/166/2 21/28/2
f 25/30/2 23/166/2 22/27/2
f 30/35/2 29/38/2 28/36/2
f 29/38/2 27/167/2 26/39/2
f 36/49/2 37/168/2 34/50/2
f 32/52/2 33/169/2 35/51/2
f 42/56/2 41/170/2 40/57/2
f 40/57/2 41/170/2 39/59/2
f 48/67/2 49/171/2 46/68/2
f 44/70/2 45/172/2 47/69/2
f 52/71/2 53/75/2 55/72/2
f 52/71/2 51/173/2 50/74/2
f 56/76/2 57/174/2 58/77/2
f 63/82/2 66/175/2 65/83/2
f 75/109/2 73/113/2 72/110/2
f 70/112/2 72/110/2 73/113/2
f 76/176/16 75/109/16 115/163/16
f 74/111/17 83/177/17 9/5/17
f 9/5/16 115/163/16 75/109/16
f 122/130/2 116/21/2 93/20/2
f 117/18/2 92/17/2 11/132/2
f 118/15/2 91/14/2 8/133/2
f 91/14/8 97/135/8 79/134/8
f 11/132/8 89/144/8 97/135/8
f 119/12/2 88/11/2 10/136/2
f 120/9/2 87/8/2 7/137/2
f 87/8/8 100/138/8 78/1/8
f 10/136/8 85/142/8 100/138/8
f 121/4/2 84/6/2 6/139/2
f 84/6/8 102/141/8 77/140/8
f 9/5/18 83/177/18 102/141/18
f 88/11/8 103/143/8 85/142/8
f 8/133/8 79/134/8 103/143/8
f 92/17/8 104/145/8 89/144/8
f 6/139/8 77/140/8 104/145/8
f 105/3/9 4/2/9 106/146/9
f 109/131/2 93/20/2 105/3/2
f 7/137/19 78/1/19 105/3/19
f 3/148/20 108/147/20 106/146/20
f 5/150/10 122/130/10 109/131/10
f 101/152/13 121/4/13 110/16/13
f 99/154/13 120/9/13 111/19/13
f 98/156/13 119/12/13 113/7/13
f 96/158/13 118/15/13 112/10/13
f 95/160/13 117/18/13 114/13/13
f 94/162/13 116/21/13 122/130/13
f 81/155/13 111/19/13 116/21/13
f 80/153/13 110/16/13 117/18/13
f 90/161/13 114/13/13 118/15/13
f 82/159/13 112/10/13 119/12/13
f 86/157/13 113/7/13 120/9/13
f 101/152/21 76/176/21 115/163/21

# 143 faces
