# Blender v2.79 (sub 0) OBJ File: ''
# www.blender.org
mtllib tile.mtl
o Cube.002
v 1.000000 0.073330 1.000000
v 1.000000 0.073330 -1.000000
v -1.000000 0.073330 -1.000000
v -1.000000 -0.073330 -1.000000
v 1.000000 -0.073330 -0.999999
v 0.999999 -0.073330 1.000001
v -1.000000 0.073330 1.000000
v -1.000000 -0.073330 1.000000
vt 0.333333 0.666667
vt 0.000000 0.666667
vt 0.000000 1.000000
vt 0.333333 0.666667
vt 0.333333 0.333333
vt 0.000000 0.333333
vt 0.666667 0.333333
vt 0.666667 0.000000
vt 0.000000 0.000000
vt 0.000000 0.333333
vt 0.333333 0.333333
vt 1.000000 0.333333
vt 1.000000 0.000000
vt 0.666667 0.000000
vt 0.333333 1.000000
vt 0.000000 0.666667
vt 0.333333 0.000000
vt 0.333333 0.000000
vt 0.666667 0.333333
vt 0.666667 0.666667
vn 0.0000 1.0000 0.0000
vn 0.0000 -1.0000 -0.0000
vn 1.0000 -0.0000 0.0000
vn -0.0000 0.0000 1.0000
vn -1.0000 0.0000 0.0000
vn 0.0000 -0.0000 -1.0000
usemtl Material.002
s 1
f 1/1/1 2/2/1 3/3/1
f 4/4/2 5/5/2 6/6/2
f 5/5/3 2/7/3 1/8/3
f 6/9/4 1/10/4 7/11/4
f 7/12/5 3/13/5 4/14/5
f 2/7/6 5/5/6 4/4/6
f 1/1/1 3/3/1 7/15/1
f 4/4/2 6/6/2 8/16/2
f 5/5/3 1/8/3 6/17/3
f 6/9/4 7/11/4 8/18/4
f 7/12/5 4/14/5 8/19/5
f 2/7/6 4/4/6 3/20/6
