# Blender v2.79 (sub 0) OBJ File: ''
# www.blender.org
o Cube.001
v 13.014575 -0.013670 19.249126
v -13.014568 -0.013662 -19.249132
v 13.014575 -0.013662 -19.249126
v -13.014572 0.013671 -19.249126
v 13.014565 0.013663 19.249140
v 13.014584 0.013671 -19.249121
v -13.014576 -0.013670 19.249119
v -13.014582 0.013663 19.249119
vt 1.000000 0.000000
vt 0.000000 1.000000
vt 0.000000 0.000000
vt 1.000000 0.000000
vt 0.000000 1.000000
vt 0.000000 0.000000
vt 1.000000 0.000000
vt 0.000000 1.000000
vt 1.000000 0.000000
vt 0.000000 1.000000
vt 0.000000 0.000000
vt 0.000000 0.000000
vt 1.000000 1.000000
vt 1.000000 0.000000
vt 0.000000 1.000000
vt 1.000000 1.000000
vt 1.000000 1.000000
vt 1.000000 1.000000
vt 1.000000 0.000000
vt 1.000000 1.000000
vn 0.0000 -1.0000 -0.0000
vn -0.0000 1.0000 0.0000
vn 1.0000 -0.0003 0.0000
vn 1.0000 0.0004 0.0000
vn -0.0000 -0.0005 1.0000
vn -0.0000 -0.0000 1.0000
vn -1.0000 -0.0002 -0.0000
vn -1.0000 -0.0001 -0.0000
vn 0.0000 0.0002 -1.0000
s 1
f 1/1/1 2/2/1 3/3/1
f 4/4/2 5/5/2 6/6/2
f 6/7/3 1/8/4 3/3/3
f 5/9/5 7/10/6 1/11/5
f 7/12/7 4/13/8 2/2/8
f 3/14/9 4/15/9 6/6/9
f 1/1/1 7/16/1 2/2/1
f 4/4/2 8/17/2 5/5/2
f 6/7/3 5/18/4 1/8/4
f 5/9/5 8/17/6 7/10/6
f 7/12/7 8/19/7 4/13/8
f 3/14/9 2/20/9 4/15/9
