# Blender v2.79 (sub 0) OBJ File: ''
# www.blender.org
mtllib cube.mtl
o Cube.001
v -0.158911 0.003976 -0.000452
v -0.502671 1.035256 -0.496549
v 0.528609 1.035256 -0.496548
v -0.351019 2.042078 0.517710
v 0.416505 2.037961 0.422628
v 0.012969 3.437796 0.019091
v -0.502671 1.035255 0.534730
v -0.412033 1.565857 0.444093
v -1.673713 1.826998 0.019206
v 0.154636 1.566292 1.565856
v 0.437970 1.565857 0.444093
v 0.528608 1.035255 0.534731
v 1.724764 1.645424 -0.166258
v -0.219872 1.645508 -1.677537
v -0.425621 2.045192 -0.468525
v -0.412033 1.565858 -0.405911
v 0.416506 2.037961 -0.384445
v 0.437971 1.565858 -0.405910
vt 0.698264 0.343702
vt 0.883495 0.282224
vt 0.883495 0.475572
vt 0.822609 0.271781
vt 0.687369 0.271781
vt 0.762669 0.000000
vt 0.341339 0.599875
vt 0.251757 0.555222
vt 0.341339 0.319935
vt 0.174074 0.690950
vt 0.244049 0.635048
vt 0.337577 0.837088
vt 0.419727 0.606269
vt 0.511109 0.565304
vt 0.511109 0.806594
vt 0.961687 0.807685
vt 0.840682 0.706489
vt 0.961687 0.521996
vt 0.337577 0.599875
vt 0.698264 0.521996
vt 0.611906 0.509961
vt 0.698264 0.282224
vt 0.955615 0.807686
vt 0.955615 0.959067
vt 0.840682 0.883376
vt 0.346561 0.338645
vt 0.518249 0.282224
vt 0.518249 0.565304
vt 0.000000 0.489628
vt 0.146989 0.444913
vt 0.146989 0.720826
vt 0.174074 0.243418
vt 0.000000 0.169473
vt 0.174074 0.000000
vt 0.142105 0.951917
vt 0.000000 0.829254
vt 0.142105 0.720826
vt 0.693306 0.750101
vt 0.693306 0.941591
vt 0.516019 0.836482
vt 0.346561 0.066275
vt 0.523541 0.000000
vt 0.523541 0.282224
vt 0.827021 0.992283
vt 0.693306 0.945959
vt 0.827021 0.771114
vt 0.346562 0.251161
vt 0.252386 0.220190
vt 0.346561 0.000000
vt 0.606975 0.535442
vt 0.693306 0.521996
vt 0.693306 0.750101
vt 0.883495 0.345913
vt 0.924323 0.308630
vt 0.972425 0.516965
vt 0.518249 0.477800
vt 0.027602 0.444913
vt 0.346561 0.652548
vt 0.174074 0.518482
vt 0.687369 0.262151
vt 0.523541 0.184098
vt 0.687369 0.000000
vt 0.840682 0.771114
vt 0.693306 0.771114
vt 0.799327 0.521996
vt 0.174074 0.182682
vt 0.193940 0.319935
vt 0.518249 0.582163
vt 0.502622 1.000000
vt 0.346561 1.000000
vt 0.457485 0.806594
vt 0.972425 0.282224
vt 1.000000 0.279105
vt 0.954663 0.247965
vt 1.000000 0.000000
vt 0.822609 0.082171
vt 0.954663 0.000000
vt 0.954663 0.266497
vn 0.0000 -0.4335 -0.9012
vn 0.1186 0.3065 0.9445
vn -0.2734 0.2072 0.9393
vn -0.8917 0.0446 0.4504
vn 0.4068 0.2209 0.8864
vn 0.0000 -0.8884 -0.4591
vn -0.8700 0.2237 0.4394
vn -0.3408 -0.1313 -0.9309
vn 0.9609 0.2770 0.0000
vn -0.9583 0.2761 0.0734
vn 0.0973 0.3015 -0.9485
vn 0.8321 -0.5547 0.0000
vn -0.0000 -0.4606 0.8876
vn -0.9487 -0.3162 -0.0000
vn -0.5601 -0.8284 -0.0000
vn 0.0534 0.9187 0.3913
vn 0.1680 0.1938 -0.9665
vn -0.9872 -0.0479 -0.1522
vn 0.9494 0.2031 0.2397
vn -0.2736 0.2072 -0.9393
vn 0.4544 -0.8908 -0.0000
vn 0.4247 0.0604 0.9033
vn -0.3363 -0.1016 0.9362
vn -0.1662 0.9860 0.0157
vn 0.2874 0.9578 0.0000
vn 0.1797 0.0528 -0.9823
vn 0.8714 0.2235 -0.4368
vn -0.9726 0.1892 -0.1351
vn -0.0000 -0.8890 0.4579
vn 0.9681 0.0551 0.2445
vn 0.8881 0.0611 -0.4556
vn 0.0389 0.9507 -0.3077
usemtl Material.001
s 1
f 1/1/1 2/2/1 3/3/1
f 4/4/2 5/5/2 6/6/2
f 7/7/3 8/8/3 9/9/3
f 4/10/4 8/11/4 10/12/4
f 11/13/5 12/14/5 13/15/5
f 3/16/6 2/17/6 14/18/6
f 8/11/7 7/19/7 10/12/7
f 15/20/8 16/21/8 9/22/8
f 5/23/9 17/24/9 6/25/9
f 15/26/10 4/27/10 6/28/10
f 17/29/11 15/30/11 6/31/11
f 3/32/12 12/33/12 1/34/12
f 12/35/13 7/36/13 1/37/13
f 7/38/14 2/39/14 1/40/14
f 2/41/15 7/42/15 9/43/15
f 5/44/16 4/45/16 10/46/16
f 3/47/17 18/48/17 13/49/17
f 16/50/18 15/51/18 14/52/18
f 12/53/19 11/54/19 10/55/19
f 16/21/20 2/56/20 9/22/20
f 12/33/21 3/32/21 13/57/21
f 5/58/22 11/13/22 13/15/22
f 8/8/23 4/59/23 9/9/23
f 4/60/24 15/61/24 9/62/24
f 17/63/25 5/64/25 13/65/25
f 18/48/26 17/66/26 13/49/26
f 18/48/27 3/47/27 14/67/27
f 2/68/28 16/50/28 14/52/28
f 7/69/29 12/70/29 10/71/29
f 11/54/30 5/72/30 10/55/30
f 17/73/31 18/74/31 14/75/31
f 15/76/32 17/77/32 14/78/32
