# Blender v2.79 (sub 0) OBJ File: 'GDW_WoodPlanks.blend'
# www.blender.org
v -1.561598 -0.099421 2.763771
v -1.561598 -0.085559 2.795719
v -1.561598 0.085559 2.795719
v -1.561598 0.099421 2.763771
v -1.561598 -0.085559 2.337449
v -1.561598 -0.099421 2.369397
v -1.561598 0.099421 2.369397
v -1.561598 0.085559 2.337449
v 1.561599 -0.085559 2.795719
v 1.561599 -0.099421 2.763771
v 1.561599 0.099421 2.763771
v 1.561599 0.085559 2.795719
v 1.561599 -0.099421 2.369397
v 1.561599 -0.085559 2.337449
v 1.561599 0.085559 2.337449
v 1.561599 0.099421 2.369397
v -1.561599 -0.099421 -2.369402
v -1.561599 -0.085559 -2.337455
v -1.561599 0.085559 -2.337455
v -1.561599 0.099421 -2.369402
v -1.561599 -0.085559 -2.795724
v -1.561599 -0.099421 -2.763776
v -1.561599 0.099421 -2.763776
v -1.561599 0.085559 -2.795724
v 1.561599 -0.085559 -2.337455
v 1.561599 -0.099421 -2.369402
v 1.561599 0.099421 -2.369402
v 1.561599 0.085559 -2.337455
v 1.561599 -0.099421 -2.763776
v 1.561599 -0.085559 -2.795724
v 1.561599 0.085559 -2.795724
v 1.561599 0.099421 -2.763776
v -1.561599 -0.099421 -1.901009
v -1.561599 -0.085559 -1.869061
v -1.561599 0.085559 -1.869061
v -1.561599 0.099421 -1.901009
v -1.561599 -0.085559 -2.327330
v -1.561599 -0.099421 -2.295383
v -1.561599 0.099421 -2.295383
v -1.561599 0.085559 -2.327330
v 1.561599 -0.085559 -1.869061
v 1.561599 -0.099421 -1.901009
v 1.561599 0.099421 -1.901009
v 1.561599 0.085559 -1.869061
v 1.561599 -0.099421 -2.295382
v 1.561599 -0.085559 -2.327330
v 1.561599 0.085559 -2.327330
v 1.561599 0.099421 -2.295382
v -1.561599 -0.099421 -1.433770
v -1.561599 -0.085559 -1.401822
v -1.561599 0.085559 -1.401822
v -1.561599 0.099421 -1.433770
v -1.561599 -0.085559 -1.860091
v -1.561599 -0.099421 -1.828144
v -1.561599 0.099421 -1.828144
v -1.561599 0.085559 -1.860091
v 1.561599 -0.085559 -1.401822
v 1.561599 -0.099421 -1.433770
v 1.561599 0.099421 -1.433770
v 1.561599 0.085559 -1.401822
v 1.561599 -0.099421 -1.828143
v 1.561599 -0.085559 -1.860091
v 1.561599 0.085559 -1.860091
v 1.561599 0.099421 -1.828143
v -1.561599 -0.099421 -0.034039
v -1.561599 -0.085559 -0.002092
v -1.561599 0.085559 -0.002092
v -1.561599 0.099421 -0.034039
v -1.561599 -0.085559 -0.460361
v -1.561599 -0.099421 -0.428413
v -1.561599 0.099421 -0.428413
v -1.561599 0.085559 -0.460361
v 1.561599 -0.085559 -0.002091
v 1.561599 -0.099421 -0.034039
v 1.561599 0.099421 -0.034039
v 1.561599 0.085559 -0.002091
v 1.561599 -0.099421 -0.428413
v 1.561599 -0.085559 -0.460361
v 1.561599 0.085559 -0.460361
v 1.561599 0.099421 -0.428413
v -1.561599 -0.099421 -0.501280
v -1.561599 -0.085559 -0.469332
v -1.561599 0.085559 -0.469332
v -1.561599 0.099421 -0.501280
v -1.561599 -0.085559 -0.927601
v -1.561599 -0.099421 -0.895653
v -1.561599 0.099421 -0.895653
v -1.561599 0.085559 -0.927601
v 1.561599 -0.085559 -0.469331
v 1.561599 -0.099421 -0.501279
v 1.561599 0.099421 -0.501279
v 1.561599 0.085559 -0.469331
v 1.561599 -0.099421 -0.895653
v 1.561599 -0.085559 -0.927601
v 1.561599 0.085559 -0.927601
v 1.561599 0.099421 -0.895653
v -1.561599 -0.099421 -0.969673
v -1.561599 -0.085559 -0.937725
v -1.561599 0.085559 -0.937725
v -1.561599 0.099421 -0.969673
v -1.561599 -0.085559 -1.395994
v -1.561599 -0.099421 -1.364046
v -1.561599 0.099421 -1.364046
v -1.561599 0.085559 -1.395994
v 1.561599 -0.085559 -0.937725
v 1.561599 -0.099421 -0.969673
v 1.561599 0.099421 -0.969673
v 1.561599 0.085559 -0.937725
v 1.561599 -0.099421 -1.364046
v 1.561599 -0.085559 -1.395994
v 1.561599 0.085559 -1.395994
v 1.561599 0.099421 -1.364046
v -1.561599 -0.099421 1.828136
v -1.561599 -0.085559 1.860084
v -1.561599 0.085559 1.860084
v -1.561599 0.099421 1.828136
v -1.561599 -0.085559 1.401814
v -1.561599 -0.099421 1.433762
v -1.561599 0.099421 1.433762
v -1.561599 0.085559 1.401814
v 1.561599 -0.085559 1.860084
v 1.561599 -0.099421 1.828136
v 1.561599 0.099421 1.828136
v 1.561599 0.085559 1.860084
v 1.561599 -0.099421 1.433763
v 1.561599 -0.085559 1.401815
v 1.561599 0.085559 1.401815
v 1.561599 0.099421 1.433763
v -1.561599 -0.099421 2.296529
v -1.561599 -0.085559 2.328477
v -1.561599 0.085559 2.328477
v -1.561599 0.099421 2.296529
v -1.561599 -0.085559 1.870207
v -1.561599 -0.099421 1.902155
v -1.561599 0.099421 1.902155
v -1.561599 0.085559 1.870207
v 1.561599 -0.085559 2.328477
v 1.561599 -0.099421 2.296529
v 1.561599 0.099421 2.296529
v 1.561599 0.085559 2.328477
v 1.561599 -0.099421 1.902156
v 1.561599 -0.085559 1.870208
v 1.561599 0.085559 1.870208
v 1.561599 0.099421 1.902156
v -1.561599 -0.099421 1.364038
v -1.561599 -0.085559 1.395986
v -1.561599 0.085559 1.395986
v -1.561599 0.099421 1.364038
v -1.561599 -0.085559 0.937717
v -1.561599 -0.099421 0.969665
v -1.561599 0.099421 0.969665
v -1.561599 0.085559 0.937717
v 1.561599 -0.085559 1.395986
v 1.561599 -0.099421 1.364038
v 1.561599 0.099421 1.364038
v 1.561599 0.085559 1.395986
v 1.561599 -0.099421 0.969665
v 1.561599 -0.085559 0.937717
v 1.561599 0.085559 0.937717
v 1.561599 0.099421 0.969665
v -1.561599 -0.099421 0.896799
v -1.561599 -0.085559 0.928747
v -1.561599 0.085559 0.928747
v -1.561599 0.099421 0.896799
v -1.561599 -0.085559 0.470478
v -1.561599 -0.099421 0.502426
v -1.561599 0.099421 0.502426
v -1.561599 0.085559 0.470478
v 1.561599 -0.085559 0.928747
v 1.561599 -0.099421 0.896799
v 1.561599 0.099421 0.896799
v 1.561599 0.085559 0.928747
v 1.561599 -0.099421 0.502426
v 1.561599 -0.085559 0.470478
v 1.561599 0.085559 0.470478
v 1.561599 0.099421 0.502426
v -1.561599 -0.099421 0.426176
v -1.561599 -0.085559 0.458124
v -1.561599 0.085559 0.458124
v -1.561599 0.099421 0.426176
v -1.561599 -0.085559 -0.000145
v -1.561599 -0.099421 0.031803
v -1.561599 0.099421 0.031803
v -1.561599 0.085559 -0.000145
v 1.561599 -0.085559 0.458125
v 1.561599 -0.099421 0.426177
v 1.561599 0.099421 0.426177
v 1.561599 0.085559 0.458125
v 1.561599 -0.099421 0.031803
v 1.561599 -0.085559 -0.000145
v 1.561599 0.085559 -0.000145
v 1.561599 0.099421 0.031803
vn 0.0000 0.0000 1.0000
vn 1.0000 0.0000 0.0000
vn 0.0000 1.0000 0.0000
vn -1.0000 0.0000 0.0000
vn 0.0000 0.0000 -1.0000
vn 0.0000 -0.9174 -0.3980
vn 0.0000 0.9174 -0.3980
vn 0.0000 -0.9174 0.3980
vn 0.0000 0.9174 0.3980
vn 0.0000 -1.0000 0.0000
s off
f 12//1 2//1 9//1
f 11//2 12//2 10//2
f 7//3 11//3 16//3
f 7//4 8//4 6//4
f 8//5 14//5 5//5
f 6//6 14//6 13//6
f 16//7 8//7 7//7
f 10//8 2//8 1//8
f 4//9 12//9 11//9
f 13//10 1//10 6//10
f 28//1 18//1 25//1
f 32//2 25//2 26//2
f 32//3 20//3 27//3
f 20//4 21//4 22//4
f 24//5 30//5 21//5
f 22//6 30//6 29//6
f 32//7 24//7 23//7
f 26//8 18//8 17//8
f 20//9 28//9 27//9
f 29//10 17//10 22//10
f 44//1 34//1 41//1
f 48//2 41//2 42//2
f 48//3 36//3 43//3
f 36//4 37//4 38//4
f 40//5 46//5 37//5
f 45//6 37//6 46//6
f 48//7 40//7 39//7
f 42//8 34//8 33//8
f 36//9 44//9 43//9
f 45//10 33//10 38//10
f 60//1 50//1 57//1
f 64//2 57//2 58//2
f 64//3 52//3 59//3
f 52//4 53//4 54//4
f 56//5 62//5 53//5
f 54//6 62//6 61//6
f 64//7 56//7 55//7
f 58//8 50//8 49//8
f 52//9 60//9 59//9
f 61//10 49//10 54//10
f 76//1 66//1 73//1
f 75//2 76//2 74//2
f 80//3 68//3 75//3
f 71//4 72//4 70//4
f 72//5 78//5 69//5
f 70//6 78//6 77//6
f 71//7 79//7 72//7
f 74//8 66//8 65//8
f 68//9 76//9 75//9
f 77//10 65//10 70//10
f 92//1 82//1 89//1
f 91//2 92//2 90//2
f 96//3 84//3 91//3
f 87//4 88//4 86//4
f 88//5 94//5 85//5
f 86//6 94//6 93//6
f 96//7 88//7 87//7
f 90//8 82//8 81//8
f 84//9 92//9 91//9
f 93//10 81//10 86//10
f 108//1 98//1 105//1
f 107//2 108//2 106//2
f 112//3 100//3 107//3
f 100//4 104//4 98//4
f 104//5 110//5 101//5
f 102//6 110//6 109//6
f 112//7 104//7 103//7
f 106//8 98//8 97//8
f 100//9 108//9 107//9
f 109//10 97//10 102//10
f 124//1 114//1 121//1
f 123//2 124//2 122//2
f 128//3 116//3 123//3
f 116//4 120//4 118//4
f 120//5 126//5 117//5
f 118//6 126//6 125//6
f 119//7 127//7 120//7
f 122//8 114//8 113//8
f 116//9 124//9 123//9
f 125//10 113//10 118//10
f 140//1 130//1 137//1
f 139//2 140//2 138//2
f 144//3 132//3 139//3
f 132//4 136//4 130//4
f 136//5 142//5 133//5
f 134//6 142//6 141//6
f 135//7 143//7 136//7
f 138//8 130//8 129//8
f 139//9 131//9 140//9
f 141//10 129//10 134//10
f 156//1 146//1 153//1
f 160//2 156//2 154//2
f 160//3 148//3 155//3
f 148//4 152//4 150//4
f 152//5 158//5 149//5
f 150//6 158//6 157//6
f 151//7 159//7 152//7
f 154//8 146//8 145//8
f 148//9 156//9 155//9
f 157//10 145//10 150//10
f 172//1 162//1 169//1
f 176//2 172//2 170//2
f 176//3 164//3 171//3
f 167//4 168//4 166//4
f 168//5 174//5 165//5
f 166//6 174//6 173//6
f 176//7 168//7 167//7
f 170//8 162//8 161//8
f 171//9 163//9 172//9
f 173//10 161//10 166//10
f 188//1 178//1 185//1
f 187//2 188//2 186//2
f 192//3 180//3 187//3
f 183//4 184//4 182//4
f 184//5 190//5 181//5
f 182//6 190//6 189//6
f 192//7 184//7 183//7
f 186//8 178//8 177//8
f 180//9 188//9 187//9
f 189//10 177//10 182//10
f 12//1 3//1 2//1
f 10//2 13//2 16//2
f 14//2 15//2 16//2
f 16//2 11//2 10//2
f 12//2 9//2 10//2
f 13//2 14//2 16//2
f 7//3 4//3 11//3
f 6//4 1//4 4//4
f 2//4 3//4 4//4
f 4//4 7//4 6//4
f 8//4 5//4 6//4
f 1//4 2//4 4//4
f 8//5 15//5 14//5
f 6//6 5//6 14//6
f 16//7 15//7 8//7
f 10//8 9//8 2//8
f 4//9 3//9 12//9
f 13//10 10//10 1//10
f 28//1 19//1 18//1
f 26//2 29//2 32//2
f 30//2 31//2 32//2
f 32//2 27//2 28//2
f 28//2 25//2 32//2
f 29//2 30//2 32//2
f 32//3 23//3 20//3
f 22//4 17//4 20//4
f 18//4 19//4 20//4
f 20//4 23//4 24//4
f 24//4 21//4 20//4
f 17//4 18//4 20//4
f 24//5 31//5 30//5
f 22//6 21//6 30//6
f 32//7 31//7 24//7
f 26//8 25//8 18//8
f 20//9 19//9 28//9
f 29//10 26//10 17//10
f 44//1 35//1 34//1
f 42//2 45//2 48//2
f 46//2 47//2 48//2
f 48//2 43//2 44//2
f 44//2 41//2 48//2
f 45//2 46//2 48//2
f 48//3 39//3 36//3
f 38//4 33//4 36//4
f 34//4 35//4 36//4
f 36//4 39//4 40//4
f 40//4 37//4 36//4
f 33//4 34//4 36//4
f 40//5 47//5 46//5
f 45//6 38//6 37//6
f 48//7 47//7 40//7
f 42//8 41//8 34//8
f 36//9 35//9 44//9
f 45//10 42//10 33//10
f 60//1 51//1 50//1
f 58//2 61//2 64//2
f 62//2 63//2 64//2
f 64//2 59//2 60//2
f 60//2 57//2 64//2
f 61//2 62//2 64//2
f 64//3 55//3 52//3
f 54//4 49//4 52//4
f 50//4 51//4 52//4
f 52//4 55//4 56//4
f 56//4 53//4 52//4
f 49//4 50//4 52//4
f 56//5 63//5 62//5
f 54//6 53//6 62//6
f 64//7 63//7 56//7
f 58//8 57//8 50//8
f 52//9 51//9 60//9
f 61//10 58//10 49//10
f 76//1 67//1 66//1
f 74//2 77//2 78//2
f 78//2 79//2 80//2
f 80//2 75//2 74//2
f 76//2 73//2 74//2
f 74//2 78//2 80//2
f 80//3 71//3 68//3
f 70//4 65//4 66//4
f 66//4 67//4 70//4
f 68//4 71//4 70//4
f 72//4 69//4 70//4
f 70//4 67//4 68//4
f 72//5 79//5 78//5
f 70//6 69//6 78//6
f 71//7 80//7 79//7
f 74//8 73//8 66//8
f 68//9 67//9 76//9
f 77//10 74//10 65//10
f 92//1 83//1 82//1
f 90//2 93//2 94//2
f 94//2 95//2 96//2
f 96//2 91//2 90//2
f 92//2 89//2 90//2
f 90//2 94//2 96//2
f 96//3 87//3 84//3
f 86//4 81//4 82//4
f 82//4 83//4 84//4
f 84//4 87//4 86//4
f 88//4 85//4 86//4
f 86//4 82//4 84//4
f 88//5 95//5 94//5
f 86//6 85//6 94//6
f 96//7 95//7 88//7
f 90//8 89//8 82//8
f 84//9 83//9 92//9
f 93//10 90//10 81//10
f 108//1 99//1 98//1
f 106//2 109//2 112//2
f 110//2 111//2 112//2
f 112//2 107//2 106//2
f 108//2 105//2 106//2
f 109//2 110//2 112//2
f 112//3 103//3 100//3
f 102//4 97//4 98//4
f 98//4 99//4 100//4
f 100//4 103//4 104//4
f 104//4 101//4 102//4
f 102//4 98//4 104//4
f 104//5 111//5 110//5
f 102//6 101//6 110//6
f 112//7 111//7 104//7
f 106//8 105//8 98//8
f 100//9 99//9 108//9
f 109//10 106//10 97//10
f 124//1 115//1 114//1
f 122//2 125//2 126//2
f 126//2 127//2 122//2
f 128//2 123//2 122//2
f 124//2 121//2 122//2
f 122//2 127//2 128//2
f 128//3 119//3 116//3
f 118//4 113//4 114//4
f 114//4 115//4 116//4
f 116//4 119//4 120//4
f 120//4 117//4 118//4
f 118//4 114//4 116//4
f 120//5 127//5 126//5
f 118//6 117//6 126//6
f 119//7 128//7 127//7
f 122//8 121//8 114//8
f 116//9 115//9 124//9
f 125//10 122//10 113//10
f 140//1 131//1 130//1
f 138//2 141//2 144//2
f 142//2 143//2 144//2
f 144//2 139//2 138//2
f 140//2 137//2 138//2
f 141//2 142//2 144//2
f 144//3 135//3 132//3
f 134//4 129//4 130//4
f 130//4 131//4 132//4
f 132//4 135//4 136//4
f 136//4 133//4 134//4
f 134//4 130//4 136//4
f 136//5 143//5 142//5
f 134//6 133//6 142//6
f 135//7 144//7 143//7
f 138//8 137//8 130//8
f 139//9 132//9 131//9
f 141//10 138//10 129//10
f 156//1 147//1 146//1
f 154//2 157//2 158//2
f 158//2 159//2 160//2
f 160//2 155//2 156//2
f 156//2 153//2 154//2
f 154//2 158//2 160//2
f 160//3 151//3 148//3
f 150//4 145//4 146//4
f 146//4 147//4 148//4
f 148//4 151//4 152//4
f 152//4 149//4 150//4
f 150//4 146//4 148//4
f 152//5 159//5 158//5
f 150//6 149//6 158//6
f 151//7 160//7 159//7
f 154//8 153//8 146//8
f 148//9 147//9 156//9
f 157//10 154//10 145//10
f 172//1 163//1 162//1
f 170//2 173//2 174//2
f 174//2 175//2 170//2
f 176//2 171//2 172//2
f 172//2 169//2 170//2
f 170//2 175//2 176//2
f 176//3 167//3 164//3
f 166//4 161//4 162//4
f 162//4 163//4 166//4
f 164//4 167//4 166//4
f 168//4 165//4 166//4
f 166//4 163//4 164//4
f 168//5 175//5 174//5
f 166//6 165//6 174//6
f 176//7 175//7 168//7
f 170//8 169//8 162//8
f 171//9 164//9 163//9
f 173//10 170//10 161//10
f 188//1 179//1 178//1
f 186//2 189//2 190//2
f 190//2 191//2 186//2
f 192//2 187//2 186//2
f 188//2 185//2 186//2
f 186//2 191//2 192//2
f 192//3 183//3 180//3
f 182//4 177//4 178//4
f 178//4 179//4 182//4
f 180//4 183//4 182//4
f 184//4 181//4 182//4
f 182//4 179//4 180//4
f 184//5 191//5 190//5
f 182//6 181//6 190//6
f 192//7 191//7 184//7
f 186//8 185//8 178//8
f 180//9 179//9 188//9
f 189//10 186//10 177//10
